# xmcd
#
# Track frame offsets: 
#        150
#        18339
#        38491
#        59595
#        77012
#        94024
#        110919
#        125128
#        142611
#        165899
#        180990
#        199349
#        219382
#        237422
#        253909
#        272814
#        288089
#        313702
#
# Disc length: 4389 seconds
#
# Revision: 2
# Processed by: cddbd v1.5.2PL0 Copyright (c) Steve Scherf et al.
# Submitted via: ExactAudioCopy v1.0b3
#
DISCID=fb112312
DTITLE=Hot Chocolate - The Essential Collection [Disc 2]
DYEAR=2004
DGENRE=Pop
TTITLE0=It Started With A Kiss
TTITLE1=So You Win Again
TTITLE2=Cicero Park
TTITLE3=I Believe (In Love)
TTITLE4=No Tears
TTITLE5=Mystery
TTITLE6=Disco Queen
TTITLE7=Love Is A Good Thing
TTITLE8=Heaven Is In The Back Seat Of My Cadillac
TTITLE9=Let Them Be The Judge
TTITLE10=Stay With Me
TTITLE11=Man To Man
TTITLE12=Chances
TTITLE13=I Gave You My Heart (Didn't I)
TTITLE14=Are You Getting Enough Of What Makes You Happy
TTITLE15=Lay Me Down Nice An' Easy
TTITLE16=Put Your Love In Me
TTITLE17=You'll Always Be A Friend
EXTD=
EXTT0=
EXTT1=
EXTT2=
EXTT3=
EXTT4=
EXTT5=
EXTT6=
EXTT7=
EXTT8=
EXTT9=
EXTT10=
EXTT11=
EXTT12=
EXTT13=
EXTT14=
EXTT15=
EXTT16=
EXTT17=
PLAYORDER=
